<svg version="1.1" id="Layer_1" xmlns="http://www.w3.org/2000/svg" xmlns:xlink="http://www.w3.org/1999/xlink" x="0px" y="0px"
	 width="100%" viewBox="0 0 602 114" enable-background="new 0 0 602 114" xml:space="preserve">
<path fill="#FDFDFD" opacity="1.000000" stroke="none" 
	d="
M15.000000,115.000000 
	C10.334761,115.000000 5.669522,115.000000 1.003212,115.000000 
	C1.002141,77.013054 1.002141,39.026104 1.002141,1.019577 
	C201.592224,1.019577 402.184448,1.019577 602.888306,1.019577 
	C602.888306,38.913651 602.888306,76.827744 602.888306,115.000000 
	C407.979187,115.000000 212.958252,115.000000 17.540930,114.590317 
	C17.375322,111.863838 17.803242,109.547340 17.806910,107.230179 
	C17.852209,78.613289 17.865314,49.996227 17.792400,21.379452 
	C17.784472,18.267099 17.187777,15.156250 16.864174,12.044703 
	C16.307125,12.067430 15.750077,12.090158 15.193028,12.112885 
	C14.879377,15.146878 14.311779,18.179249 14.292375,21.215122 
	C14.141366,44.840015 14.011531,68.465782 14.066425,92.090828 
	C14.084170,99.727905 14.672616,107.363647 15.000000,115.000000 
M362.770569,82.125038 
	C351.506470,76.841949 345.589783,66.054138 347.404114,54.107609 
	C349.425842,40.795433 356.169800,34.061214 369.467346,32.258442 
	C372.097321,31.901897 374.784363,31.891388 377.446564,31.863348 
	C382.858215,31.806341 388.270905,31.846302 393.613037,31.846302 
	C393.613037,26.284277 393.613037,21.842377 393.613037,16.692019 
	C385.422150,17.082684 377.473785,17.251156 369.561798,17.878773 
	C346.153259,19.735655 332.791534,33.628551 332.219116,57.015892 
	C331.862610,71.580887 335.540131,84.651627 349.422516,92.211838 
	C363.361542,99.802887 378.589539,98.208977 393.670532,98.004356 
	C393.670532,80.953102 393.670532,64.504807 393.670532,47.779373 
	C383.427521,47.779373 373.360901,47.779373 363.221283,47.779373 
	C363.221283,53.052582 363.221283,58.017597 363.221283,63.423317 
	C368.459991,63.423317 373.561188,63.423317 378.467499,63.423317 
	C378.467499,70.561058 378.467499,77.236374 378.467499,84.665619 
	C372.972168,83.830154 368.249054,83.112091 362.770569,82.125038 
M459.855927,91.428833 
	C472.622437,81.484810 476.890594,68.107567 475.147308,52.546181 
	C472.196991,26.210434 450.520569,11.860117 423.690186,19.591398 
	C408.204041,24.053795 398.734314,37.927223 398.100433,54.116131 
	C397.564667,67.798729 400.801788,80.181679 411.662445,89.569038 
	C422.629669,99.048462 444.093994,102.104942 459.855927,91.428833 
M319.008545,60.499428 
	C319.008545,46.277390 319.008545,32.055351 319.008545,17.411348 
	C313.097565,17.411348 308.216339,17.411348 302.950134,17.411348 
	C302.950134,34.560333 302.950134,51.617283 302.950134,69.050827 
	C287.348480,69.050827 272.117493,69.050827 256.689331,69.050827 
	C256.689331,78.855896 256.689331,88.277344 256.689331,97.845482 
	C261.605133,97.845482 266.303741,97.845482 271.450684,97.845482 
	C271.450684,92.948593 271.450684,88.384644 271.450684,83.731293 
	C282.155518,83.731293 292.405609,83.731293 303.230469,83.731293 
	C303.230469,88.634720 303.230469,93.345421 303.230469,97.987221 
	C308.753418,97.987221 313.698212,97.987221 319.008575,97.987221 
	C319.008575,85.699074 319.008575,73.599304 319.008545,60.499428 
M64.508865,50.163364 
	C60.217258,50.163364 55.925648,50.163364 51.419750,50.163364 
	C51.419750,43.803532 51.419750,37.894524 51.419750,31.408991 
	C59.044090,31.408991 66.436317,31.408991 73.664314,31.408991 
	C73.664314,26.252348 73.664314,21.678961 73.664314,17.233076 
	C61.213776,17.233076 49.103111,17.233076 36.889336,17.233076 
	C36.889336,44.214397 36.889336,70.959213 36.889336,97.937614 
	C41.648396,97.937614 46.212067,97.937614 51.175461,97.937614 
	C51.175461,86.977890 51.175461,76.228600 51.175461,65.015549 
	C62.467178,65.015549 73.368912,65.015549 84.333954,65.015549 
	C84.333954,59.820217 84.333954,55.104927 84.333954,50.163368 
	C77.812347,50.163368 71.658630,50.163368 64.508865,50.163364 
M203.769730,44.716496 
	C205.167862,54.254570 210.641464,60.306919 219.727158,63.146374 
	C222.252502,63.935596 224.883926,64.405876 227.486282,64.924149 
	C234.098206,66.240936 238.125198,69.313934 238.618134,74.033195 
	C239.179718,79.409622 235.697403,82.014519 231.307846,84.031212 
	C228.701294,85.228737 226.886200,92.897240 229.128693,96.155426 
	C230.140594,97.625656 234.110641,98.119911 236.320328,97.518990 
	C245.056015,95.143379 250.616135,89.025253 252.699432,80.377144 
	C254.835739,71.508980 252.562576,63.602608 245.452057,57.399456 
	C240.029694,52.669033 233.378250,51.361889 226.581970,50.477814 
	C221.808807,49.856911 218.167236,46.816639 218.420319,42.604557 
	C218.632675,39.070026 221.363846,34.968372 224.190704,32.510353 
	C227.048676,30.025269 234.375381,31.997246 236.204132,35.375828 
	C239.187759,40.888069 243.675980,41.152241 248.930740,40.552509 
	C252.400330,40.156517 253.379013,38.936699 252.449448,35.325397 
	C249.117844,22.382336 237.921860,15.543541 223.101715,17.762661 
	C211.098831,19.559933 202.902145,30.605158 203.769730,44.716496 
M525.364136,88.176109 
	C526.561768,91.436523 527.759338,94.696945 528.835266,97.626015 
	C534.061890,97.626015 538.915466,97.626015 544.620605,97.626015 
	C533.870483,70.379105 523.426086,43.907265 512.981750,17.435421 
	C512.584351,17.478592 512.187012,17.521763 511.789612,17.564932 
	C501.477631,44.124516 491.165619,70.684097 480.671051,97.713936 
	C486.186584,97.713936 491.062622,97.713936 496.211578,97.713936 
	C501.434265,83.174347 506.632965,68.701614 511.831635,54.228886 
	C512.272339,54.229267 512.713074,54.229649 513.153809,54.230030 
	C517.136963,65.298195 521.120117,76.366356 525.364136,88.176109 
M140.861969,84.312401 
	C139.171249,88.684715 137.480530,93.057022 135.566772,98.006157 
	C139.502502,98.006157 142.513504,97.779549 145.476318,98.060745 
	C149.632935,98.455231 151.812943,96.886673 153.107178,92.821892 
	C155.823074,84.292213 158.993011,75.905998 162.029434,67.479935 
	C163.613556,63.083977 165.309906,58.728458 167.296326,53.449028 
	C168.545441,56.364109 169.413681,58.155277 170.093521,60.015297 
	C174.305969,71.540283 178.416061,83.103340 182.737885,94.586876 
	C183.264877,95.987190 184.764221,97.891380 185.966736,98.010582 
	C190.200928,98.430328 194.502182,98.173729 199.604630,98.173729 
	C188.871979,70.683899 178.442551,43.970734 167.446472,15.806168 
	C158.255096,39.407494 149.657272,61.484703 140.861969,84.312401 
M87.652451,24.999348 
	C87.652451,39.052204 87.652451,53.105061 87.652451,67.146347 
	C92.871185,67.146347 97.910606,67.146347 102.836899,67.146347 
	C102.836899,50.228218 102.836899,33.691891 102.836899,16.990288 
	C100.013313,16.990288 97.530144,16.975435 95.047211,16.993126 
	C88.105789,17.042580 88.105827,17.047892 87.652451,24.999348 
M563.087341,32.502892 
	C563.087341,27.413862 563.087341,22.324833 563.087341,17.187389 
	C557.946228,17.187389 553.357910,17.187389 548.525696,17.187389 
	C548.525696,33.914566 548.525696,50.440872 548.525696,67.208000 
	C553.448792,67.208000 558.149536,67.208000 563.087341,67.208000 
	C563.087341,55.756287 563.087341,44.628918 563.087341,32.502892 
M104.502266,83.455086 
	C98.769867,83.455086 93.037468,83.455086 87.518478,83.455086 
	C87.518478,88.879951 87.518478,93.444847 87.518478,97.982010 
	C102.667915,97.982010 117.439774,97.982010 132.469437,97.982010 
	C132.469437,93.198990 132.469437,88.625114 132.469437,83.455132 
	C123.383896,83.455132 114.442619,83.455132 104.502266,83.455086 
M578.492676,83.995987 
	C568.574585,83.995987 558.656555,83.995987 548.653137,83.995987 
	C548.653137,88.872353 548.653137,93.401436 548.653137,97.971466 
	C563.579102,97.971466 578.146057,97.971466 592.692566,97.971466 
	C592.692566,93.376472 592.692566,88.995377 592.692566,83.995995 
	C588.047302,83.995995 583.767639,83.995995 578.492676,83.995987 
M271.193726,33.500252 
	C271.193726,28.092051 271.193726,22.683851 271.193726,17.162617 
	C266.086975,17.162617 261.507294,17.162617 256.851929,17.162617 
	C256.851929,28.665924 256.851929,39.982662 256.851929,51.210197 
	C261.812469,51.210197 266.369141,51.210197 271.193726,51.210197 
	C271.193726,45.417629 271.193726,39.958462 271.193726,33.500252 
z"/>
<path fill="#0D0D0D" opacity="1.000000" stroke="none" 
	d="
M15.333333,115.000000 
	C14.672616,107.363647 14.084170,99.727905 14.066425,92.090828 
	C14.011531,68.465782 14.141366,44.840015 14.292375,21.215122 
	C14.311779,18.179249 14.879377,15.146878 15.193028,12.112885 
	C15.750077,12.090158 16.307125,12.067430 16.864174,12.044703 
	C17.187777,15.156250 17.784472,18.267099 17.792400,21.379452 
	C17.865314,49.996227 17.852209,78.613289 17.806910,107.230179 
	C17.803242,109.547340 17.375322,111.863838 17.072273,114.590317 
	C16.555555,115.000000 16.111111,115.000000 15.333333,115.000000 
z"/>
<path fill="#070707" opacity="1.000000" stroke="none" 
	d="
M363.148254,82.259537 
	C368.249054,83.112091 372.972168,83.830154 378.467499,84.665619 
	C378.467499,77.236374 378.467499,70.561058 378.467499,63.423317 
	C373.561188,63.423317 368.459991,63.423317 363.221283,63.423317 
	C363.221283,58.017597 363.221283,53.052582 363.221283,47.779373 
	C373.360901,47.779373 383.427521,47.779373 393.670532,47.779373 
	C393.670532,64.504807 393.670532,80.953102 393.670532,98.004356 
	C378.589539,98.208977 363.361542,99.802887 349.422516,92.211838 
	C335.540131,84.651627 331.862610,71.580887 332.219116,57.015892 
	C332.791534,33.628551 346.153259,19.735655 369.561798,17.878773 
	C377.473785,17.251156 385.422150,17.082684 393.613037,16.692019 
	C393.613037,21.842377 393.613037,26.284277 393.613037,31.846302 
	C388.270905,31.846302 382.858215,31.806341 377.446564,31.863348 
	C374.784363,31.891388 372.097321,31.901897 369.467346,32.258442 
	C356.169800,34.061214 349.425842,40.795433 347.404114,54.107609 
	C345.589783,66.054138 351.506470,76.841949 363.148254,82.259537 
z"/>
<path fill="#040404" opacity="1.000000" stroke="none" 
	d="
M459.564087,91.648422 
	C444.093994,102.104942 422.629669,99.048462 411.662445,89.569038 
	C400.801788,80.181679 397.564667,67.798729 398.100433,54.116131 
	C398.734314,37.927223 408.204041,24.053795 423.690186,19.591398 
	C450.520569,11.860117 472.196991,26.210434 475.147308,52.546181 
	C476.890594,68.107567 472.622437,81.484810 459.564087,91.648422 
M449.282898,80.972771 
	C459.609619,73.280434 463.239960,62.000946 459.523682,49.154305 
	C456.140106,37.457779 449.407196,32.254822 437.117615,31.839600 
	C425.879456,31.459904 418.509674,36.581760 414.506622,47.553867 
	C410.506836,58.516979 413.418915,71.700523 421.416992,78.838760 
	C428.961426,85.572136 438.299896,86.446747 449.282898,80.972771 
z"/>
<path fill="#060606" opacity="1.000000" stroke="none" 
	d="
M319.008545,60.999477 
	C319.008575,73.599304 319.008575,85.699074 319.008575,97.987221 
	C313.698212,97.987221 308.753418,97.987221 303.230469,97.987221 
	C303.230469,93.345421 303.230469,88.634720 303.230469,83.731293 
	C292.405609,83.731293 282.155518,83.731293 271.450684,83.731293 
	C271.450684,88.384644 271.450684,92.948593 271.450684,97.845482 
	C266.303741,97.845482 261.605133,97.845482 256.689331,97.845482 
	C256.689331,88.277344 256.689331,78.855896 256.689331,69.050827 
	C272.117493,69.050827 287.348480,69.050827 302.950134,69.050827 
	C302.950134,51.617283 302.950134,34.560333 302.950134,17.411348 
	C308.216339,17.411348 313.097565,17.411348 319.008545,17.411348 
	C319.008545,32.055351 319.008545,46.277390 319.008545,60.999477 
z"/>
<path fill="#030303" opacity="1.000000" stroke="none" 
	d="
M65.006889,50.163368 
	C71.658630,50.163368 77.812347,50.163368 84.333954,50.163368 
	C84.333954,55.104927 84.333954,59.820217 84.333954,65.015549 
	C73.368912,65.015549 62.467178,65.015549 51.175461,65.015549 
	C51.175461,76.228600 51.175461,86.977890 51.175461,97.937614 
	C46.212067,97.937614 41.648396,97.937614 36.889336,97.937614 
	C36.889336,70.959213 36.889336,44.214397 36.889336,17.233076 
	C49.103111,17.233076 61.213776,17.233076 73.664314,17.233076 
	C73.664314,21.678961 73.664314,26.252348 73.664314,31.408991 
	C66.436317,31.408991 59.044090,31.408991 51.419750,31.408991 
	C51.419750,37.894524 51.419750,43.803532 51.419750,50.163364 
	C55.925648,50.163364 60.217258,50.163364 65.006889,50.163368 
z"/>
<path fill="#050505" opacity="1.000000" stroke="none" 
	d="
M203.737762,44.307812 
	C202.902145,30.605158 211.098831,19.559933 223.101715,17.762661 
	C237.921860,15.543541 249.117844,22.382336 252.449448,35.325397 
	C253.379013,38.936699 252.400330,40.156517 248.930740,40.552509 
	C243.675980,41.152241 239.187759,40.888069 236.204132,35.375828 
	C234.375381,31.997246 227.048676,30.025269 224.190704,32.510353 
	C221.363846,34.968372 218.632675,39.070026 218.420319,42.604557 
	C218.167236,46.816639 221.808807,49.856911 226.581970,50.477814 
	C233.378250,51.361889 240.029694,52.669033 245.452057,57.399456 
	C252.562576,63.602608 254.835739,71.508980 252.699432,80.377144 
	C250.616135,89.025253 245.056015,95.143379 236.320328,97.518990 
	C234.110641,98.119911 230.140594,97.625656 229.128693,96.155426 
	C226.886200,92.897240 228.701294,85.228737 231.307846,84.031212 
	C235.697403,82.014519 239.179718,79.409622 238.618134,74.033195 
	C238.125198,69.313934 234.098206,66.240936 227.486282,64.924149 
	C224.883926,64.405876 222.252502,63.935596 219.727158,63.146374 
	C210.641464,60.306919 205.167862,54.254570 203.737762,44.307812 
z"/>
<path fill="#050505" opacity="1.000000" stroke="none" 
	d="
M525.233704,87.805313 
	C521.120117,76.366356 517.136963,65.298195 513.153809,54.230030 
	C512.713074,54.229649 512.272339,54.229267 511.831635,54.228886 
	C506.632965,68.701614 501.434265,83.174347 496.211578,97.713936 
	C491.062622,97.713936 486.186584,97.713936 480.671051,97.713936 
	C491.165619,70.684097 501.477631,44.124516 511.789612,17.564932 
	C512.187012,17.521763 512.584351,17.478592 512.981750,17.435421 
	C523.426086,43.907265 533.870483,70.379105 544.620605,97.626015 
	C538.915466,97.626015 534.061890,97.626015 528.835266,97.626015 
	C527.759338,94.696945 526.561768,91.436523 525.233704,87.805313 
z"/>
<path fill="#050505" opacity="1.000000" stroke="none" 
	d="
M140.960724,83.937157 
	C149.657272,61.484703 158.255096,39.407494 167.446472,15.806168 
	C178.442551,43.970734 188.871979,70.683899 199.604630,98.173729 
	C194.502182,98.173729 190.200928,98.430328 185.966736,98.010582 
	C184.764221,97.891380 183.264877,95.987190 182.737885,94.586876 
	C178.416061,83.103340 174.305969,71.540283 170.093521,60.015297 
	C169.413681,58.155277 168.545441,56.364109 167.296326,53.449028 
	C165.309906,58.728458 163.613556,63.083977 162.029434,67.479935 
	C158.993011,75.905998 155.823074,84.292213 153.107178,92.821892 
	C151.812943,96.886673 149.632935,98.455231 145.476318,98.060745 
	C142.513504,97.779549 139.502502,98.006157 135.566772,98.006157 
	C137.480530,93.057022 139.171249,88.684715 140.960724,83.937157 
z"/>
<path fill="#070707" opacity="1.000000" stroke="none" 
	d="
M87.666382,24.546360 
	C88.105827,17.047892 88.105789,17.042580 95.047211,16.993126 
	C97.530144,16.975435 100.013313,16.990288 102.836899,16.990288 
	C102.836899,33.691891 102.836899,50.228218 102.836899,67.146347 
	C97.910606,67.146347 92.871185,67.146347 87.652451,67.146347 
	C87.652451,53.105061 87.652451,39.052204 87.666382,24.546360 
z"/>
<path fill="#090909" opacity="1.000000" stroke="none" 
	d="
M563.087341,33.002220 
	C563.087341,44.628918 563.087341,55.756287 563.087341,67.208000 
	C558.149536,67.208000 553.448792,67.208000 548.525696,67.208000 
	C548.525696,50.440872 548.525696,33.914566 548.525696,17.187389 
	C553.357910,17.187389 557.946228,17.187389 563.087341,17.187389 
	C563.087341,22.324833 563.087341,27.413862 563.087341,33.002220 
z"/>
<path fill="#0B0B0B" opacity="1.000000" stroke="none" 
	d="
M105.001801,83.455109 
	C114.442619,83.455132 123.383896,83.455132 132.469437,83.455132 
	C132.469437,88.625114 132.469437,93.198990 132.469437,97.982010 
	C117.439774,97.982010 102.667915,97.982010 87.518478,97.982010 
	C87.518478,93.444847 87.518478,88.879951 87.518478,83.455086 
	C93.037468,83.455086 98.769867,83.455086 105.001801,83.455109 
z"/>
<path fill="#040404" opacity="1.000000" stroke="none" 
	d="
M578.990295,83.995987 
	C583.767639,83.995995 588.047302,83.995995 592.692566,83.995995 
	C592.692566,88.995377 592.692566,93.376472 592.692566,97.971466 
	C578.146057,97.971466 563.579102,97.971466 548.653137,97.971466 
	C548.653137,93.401436 548.653137,88.872353 548.653137,83.995987 
	C558.656555,83.995987 568.574585,83.995987 578.990295,83.995987 
z"/>
<path fill="#0C0C0C" opacity="1.000000" stroke="none" 
	d="
M271.193726,33.999775 
	C271.193726,39.958462 271.193726,45.417629 271.193726,51.210197 
	C266.369141,51.210197 261.812469,51.210197 256.851929,51.210197 
	C256.851929,39.982662 256.851929,28.665924 256.851929,17.162617 
	C261.507294,17.162617 266.086975,17.162617 271.193726,17.162617 
	C271.193726,22.683851 271.193726,28.092051 271.193726,33.999775 
z"/>
<path fill="#FCFCFC" opacity="1.000000" stroke="none" 
	d="
M448.974182,81.181778 
	C438.299896,86.446747 428.961426,85.572136 421.416992,78.838760 
	C413.418915,71.700523 410.506836,58.516979 414.506622,47.553867 
	C418.509674,36.581760 425.879456,31.459904 437.117615,31.839600 
	C449.407196,32.254822 456.140106,37.457779 459.523682,49.154305 
	C463.239960,62.000946 459.609619,73.280434 448.974182,81.181778 
M432.851562,52.467758 
	C428.640930,57.652950 429.068420,63.378994 433.908722,64.696426 
	C437.866333,65.773613 441.624268,64.319817 443.238831,60.829662 
	C444.117310,58.930729 443.086609,55.539253 441.871582,53.420456 
	C439.928009,50.031204 436.746368,49.541256 432.851562,52.467758 
z"/>
<path fill="#070707" opacity="1.000000" stroke="none" 
	d="
M433.147308,52.248608 
	C436.746368,49.541256 439.928009,50.031204 441.871582,53.420456 
	C443.086609,55.539253 444.117310,58.930729 443.238831,60.829662 
	C441.624268,64.319817 437.866333,65.773613 433.908722,64.696426 
	C429.068420,63.378994 428.640930,57.652950 433.147308,52.248608 
z"/>
</svg>