<?xml version="1.0" encoding="UTF-8"?>
<svg xmlns="http://www.w3.org/2000/svg" xmlns:xlink="http://www.w3.org/1999/xlink" width="748px" height="561px" viewBox="0 0 191 144" version="1.1">
<g id="surface1">
<path style=" stroke:none;fill-rule:nonzero;fill:rgb(0%,0%,0%);fill-opacity:1;" d="M 32.140625 72.03125 C 32.140625 83.476562 32.207031 85.175781 32.636719 85.175781 C 33.066406 85.175781 33.136719 83.476562 33.136719 72.03125 C 33.136719 60.585938 33.066406 58.890625 32.636719 58.890625 C 32.207031 58.890625 32.140625 60.585938 32.140625 72.03125 Z M 32.140625 72.03125 "/>
<path style=" stroke:none;fill-rule:nonzero;fill:rgb(0%,0%,0%);fill-opacity:1;" d="M 37.769531 70.371094 L 37.769531 80.515625 L 41.410156 80.515625 L 41.410156 72.199219 L 49.6875 72.199219 L 49.6875 68.539062 L 41.410156 68.539062 L 41.410156 63.882812 L 47.039062 63.882812 L 47.039062 60.222656 L 37.769531 60.222656 Z M 37.769531 70.371094 "/>
<path style=" stroke:none;fill-rule:nonzero;fill:rgb(0%,0%,0%);fill-opacity:1;" d="M 50.582031 60.453125 C 50.449219 60.554688 50.347656 63.414062 50.347656 66.777344 L 50.347656 72.867188 L 54.320312 72.867188 L 54.320312 60.222656 L 52.566406 60.222656 C 51.574219 60.222656 50.679688 60.320312 50.582031 60.453125 Z M 50.582031 60.453125 "/>
<path style=" stroke:none;fill-rule:nonzero;fill:rgb(0%,0%,0%);fill-opacity:1;" d="M 69.878906 60.921875 C 69.710938 61.351562 67.925781 65.910156 65.941406 71.035156 L 62.363281 80.351562 L 64.183594 80.453125 C 65.375 80.515625 66.105469 80.417969 66.269531 80.152344 C 66.402344 79.917969 67.296875 77.457031 68.257812 74.726562 C 69.183594 71.96875 70.042969 69.605469 70.175781 69.472656 C 70.308594 69.339844 71.300781 71.765625 72.363281 74.859375 L 74.347656 80.515625 L 76.265625 80.515625 C 77.292969 80.515625 78.15625 80.453125 78.15625 80.382812 C 78.15625 80.183594 70.472656 60.421875 70.34375 60.253906 C 70.277344 60.1875 70.078125 60.488281 69.878906 60.921875 Z M 69.878906 60.921875 "/>
<path style=" stroke:none;fill-rule:nonzero;fill:rgb(0%,0%,0%);fill-opacity:1;" d="M 83.285156 60.585938 C 80.472656 61.652344 78.914062 64.148438 79.246094 67.074219 C 79.511719 69.703125 81.5625 71.667969 84.378906 72.03125 C 86.496094 72.332031 87.289062 72.765625 87.785156 73.929688 C 88.285156 75.160156 87.722656 76.359375 86.398438 76.824219 C 85.503906 77.125 85.4375 77.289062 85.4375 78.820312 C 85.4375 80.417969 85.503906 80.515625 86.265625 80.515625 C 88.515625 80.515625 90.765625 78.585938 91.429688 76.160156 C 92.320312 72.832031 90.269531 69.671875 86.792969 68.90625 C 85.832031 68.707031 84.839844 68.539062 84.609375 68.539062 C 83.847656 68.539062 82.789062 67.308594 82.789062 66.410156 C 82.789062 65.980469 83.121094 65.246094 83.484375 64.746094 C 84.078125 63.980469 84.410156 63.847656 85.535156 63.949219 C 86.695312 64.015625 87.023438 64.246094 87.589844 65.113281 C 88.21875 66.144531 88.351562 66.210938 89.90625 66.109375 C 91.460938 66.042969 91.5625 66.011719 91.460938 65.210938 C 91.230469 63.683594 90.304688 62.152344 89.078125 61.320312 C 87.621094 60.386719 84.839844 60.019531 83.285156 60.585938 Z M 83.285156 60.585938 "/>
<path style=" stroke:none;fill-rule:nonzero;fill:rgb(0%,0%,0%);fill-opacity:1;" d="M 92.390625 64.546875 L 92.390625 68.871094 L 96.027344 68.871094 L 96.027344 60.222656 L 92.390625 60.222656 Z M 92.390625 64.546875 "/>
<path style=" stroke:none;fill-rule:nonzero;fill:rgb(0%,0%,0%);fill-opacity:1;" d="M 103.976562 66.710938 L 103.976562 73.199219 L 92.390625 73.199219 L 92.390625 80.515625 L 96.027344 80.515625 L 96.027344 76.859375 L 103.976562 76.859375 L 103.976562 80.515625 L 107.945312 80.515625 L 107.878906 70.433594 L 107.78125 60.386719 L 105.894531 60.289062 L 103.976562 60.1875 Z M 103.976562 66.710938 "/>
<path style=" stroke:none;fill-rule:nonzero;fill:rgb(0%,0%,0%);fill-opacity:1;" d="M 119.300781 60.585938 C 113.972656 61.617188 111.222656 64.847656 111.191406 70.136719 C 111.191406 73.296875 111.621094 75.027344 112.878906 76.757812 C 114.765625 79.386719 117.910156 80.515625 123.238281 80.515625 L 126.484375 80.515625 L 126.484375 67.875 L 118.871094 67.875 L 118.871094 71.867188 L 122.875 71.867188 L 122.777344 74.429688 L 122.675781 77.023438 L 121.519531 76.957031 C 119.070312 76.789062 118.109375 76.457031 116.886719 75.292969 C 114.863281 73.496094 114.304688 70.070312 115.527344 67.375 C 116.753906 64.714844 118.503906 63.914062 123.273438 63.882812 L 126.484375 63.882812 L 126.484375 60.222656 L 123.605469 60.253906 C 121.980469 60.289062 120.0625 60.421875 119.300781 60.585938 Z M 119.300781 60.585938 "/>
<path style=" stroke:none;fill-rule:nonzero;fill:rgb(0%,0%,0%);fill-opacity:1;" d="M 134.363281 60.65625 C 129.796875 61.949219 127.144531 66.109375 127.542969 71.335938 C 128.007812 77.023438 131.78125 80.515625 137.410156 80.515625 C 142.835938 80.515625 146.742188 76.425781 146.808594 70.703125 C 146.84375 67.742188 146.046875 65.378906 144.324219 63.449219 C 143.632812 62.617188 142.371094 61.617188 141.578125 61.253906 C 139.757812 60.355469 136.414062 60.089844 134.363281 60.65625 Z M 140.621094 64.8125 C 143 66.511719 143.894531 70.902344 142.441406 73.761719 C 140.851562 76.859375 137.375 78.019531 134.429688 76.457031 C 130.191406 74.164062 130.058594 67.109375 134.230469 64.480469 C 135.6875 63.582031 139.128906 63.75 140.621094 64.8125 Z M 140.621094 64.8125 "/>
<path style=" stroke:none;fill-rule:nonzero;fill:rgb(0%,0%,0%);fill-opacity:1;" d="M 136.148438 69.070312 C 135.355469 69.636719 135.15625 71.132812 135.820312 71.800781 C 136.8125 72.796875 139.0625 71.832031 139.0625 70.433594 C 139.0625 69.769531 137.9375 68.539062 137.308594 68.539062 C 137.074219 68.539062 136.546875 68.773438 136.148438 69.070312 Z M 136.148438 69.070312 "/>
<path style=" stroke:none;fill-rule:nonzero;fill:rgb(0%,0%,0%);fill-opacity:1;" d="M 151.941406 70.304688 L 148.066406 80.351562 L 149.886719 80.453125 C 150.914062 80.515625 151.773438 80.484375 151.875 80.417969 C 151.941406 80.316406 152.832031 77.890625 153.828125 74.996094 C 154.820312 72.066406 155.746094 69.605469 155.878906 69.472656 C 156.011719 69.339844 157.003906 71.765625 158.066406 74.859375 L 160.050781 80.515625 L 162.003906 80.515625 C 163.0625 80.515625 163.890625 80.382812 163.824219 80.21875 C 161.507812 74.03125 156.078125 60.222656 155.945312 60.222656 C 155.847656 60.222656 154.058594 64.746094 151.941406 70.304688 Z M 151.941406 70.304688 "/>
<path style=" stroke:none;fill-rule:nonzero;fill:rgb(0%,0%,0%);fill-opacity:1;" d="M 164.882812 66.542969 L 164.882812 72.867188 L 168.523438 72.867188 L 168.523438 60.222656 L 164.882812 60.222656 Z M 164.882812 66.542969 "/>
<path style=" stroke:none;fill-rule:nonzero;fill:rgb(0%,0%,0%);fill-opacity:1;" d="M 50.347656 78.6875 L 50.347656 80.515625 L 61.601562 80.515625 L 61.601562 76.859375 L 50.347656 76.859375 Z M 50.347656 78.6875 "/>
<path style=" stroke:none;fill-rule:nonzero;fill:rgb(0%,0%,0%);fill-opacity:1;" d="M 164.882812 78.6875 L 164.882812 80.515625 L 176.007812 80.515625 L 175.9375 78.753906 L 175.875 77.023438 L 170.378906 76.925781 L 164.882812 76.859375 Z M 164.882812 78.6875 "/>
</g>
</svg>
